<svg width="10" height="10" viewBox="0 0 10 10" fill="none" xmlns="http://www.w3.org/2000/svg">
<path d="M5.1823 4.66742L9.22657 0.623135C9.36895 0.480747 9.36895 0.249893 9.22657 0.107523C9.08418 -0.0348463 8.85332 -0.0348646 8.71095 0.107523L4.66667 4.15181L0.622403 0.107523C0.480015 -0.0348646 0.249161 -0.0348646 0.106791 0.107523C-0.0355788 0.249911 -0.035597 0.480765 0.106791 0.623135L4.15106 4.6674L0.106791 8.71169C-0.035597 8.85407 -0.035597 9.08493 0.106791 9.2273C0.177976 9.29848 0.271291 9.33407 0.364606 9.33407C0.457921 9.33407 0.551218 9.29848 0.622421 9.2273L4.66667 5.18303L8.71094 9.2273C8.78212 9.29848 8.87544 9.33407 8.96875 9.33407C9.06207 9.33407 9.15536 9.29848 9.22657 9.2273C9.36895 9.08491 9.36895 8.85406 9.22657 8.71169L5.1823 4.66742Z" fill="#4B5168"/>
</svg>
