<svg width="24" height="24" viewBox="0 0 24 24" fill="none" xmlns="http://www.w3.org/2000/svg">
<path d="M12 0C5.36705 0 0 5.36752 0 12C0 18.633 5.36752 24 12 24C18.633 24 24 18.6325 24 12C24 5.36705 18.6324 0 12 0ZM12 22.125C6.40345 22.125 1.875 17.5962 1.875 12C1.875 6.40345 6.40383 1.875 12 1.875C17.5965 1.875 22.125 6.40383 22.125 12C22.125 17.5965 17.5961 22.125 12 22.125Z" fill="#4B5168"/>
<path d="M12 10.0468C11.4822 10.0468 11.0625 10.4665 11.0625 10.9843V17.0214C11.0625 17.5392 11.4822 17.9589 12 17.9589C12.5178 17.9589 12.9375 17.5392 12.9375 17.0214V10.9843C12.9375 10.4665 12.5178 10.0468 12 10.0468Z" fill="#4B5168"/>
<path d="M12 8.89868C12.699 8.89868 13.2656 8.33204 13.2656 7.63306C13.2656 6.93407 12.699 6.36743 12 6.36743C11.301 6.36743 10.7344 6.93407 10.7344 7.63306C10.7344 8.33204 11.301 8.89868 12 8.89868Z" fill="#4B5168"/>
</svg>
